<?xml version="1.0" encoding="UTF-8"?>
<svg id="Capa_1" data-name="Capa 1" xmlns="http://www.w3.org/2000/svg" viewBox="0 0 294.52 146.96" fill="currentColor">
  <g>
    <path d="M31.29,125.11v-24.27l-2.92.17-.07-.07v-.81l.07-.07h9.54v.27c-2.58.41-2.99.68-2.99,1.83v20.06c0,5.5-2.41,8.18-8.25,10.18l-.07-.14c3.33-1.63,4.68-3.63,4.68-7.16Z"/>
    <path d="M39.2,116.73c0-4.62,3.26-8.83,7.94-8.83,4.28,0,7.5,3.53,7.5,8.15s-3.26,8.79-7.94,8.79c-4.28,0-7.5-3.53-7.5-8.11ZM53.02,118.9c0-4.07-4.55-9.2-8.49-9.2-2.34,0-3.7,1.39-3.7,4.18,0,4.07,4.55,9.2,8.49,9.2,2.38,0,3.7-1.39,3.7-4.18Z"/>
    <path d="M58.48,122.56v-21.39h-2.34v-.14l6.42-1.66v.03c-.65.78-.71,1.83-.71,3.39v8.42h.07c.95-1.7,2.92-3.33,5.53-3.33,2.78,0,4.55,1.83,4.55,4.92v11.03l2.27-.17.07.07v.71l-.07.03h-7.71v-.1c1.9-.48,2.07-.78,2.07-1.83v-9.03c0-2.17-1.49-3.53-3.46-3.53-1.29,0-2.48.65-3.33,1.73v12.12l2.24-.17.03.07v.71l-.03.03h-7.94v-.1c2.14-.48,2.34-.78,2.34-1.83Z"/>
    <path d="M84.72,123.21v-.65c-1.05,1.36-2.85,2.27-4.75,2.27-2.51,0-4.72-1.56-4.72-4.41s2.41-4.85,6.31-4.85c.78,0,2.04.07,3.09.2v-1.87c0-2.61-1.7-4.11-4.14-4.11-1.8,0-3.26.81-4.31,1.8l-.1-.07c1.39-1.94,4.01-3.63,6.96-3.63,3.26,0,4.96,2,4.96,5.3v10.22l2.24-.27v.14c-.75.71-2.44,1.56-3.73,1.56-1.12,0-1.8-.61-1.8-1.63ZM82.24,123.01c.92,0,1.77-.27,2.41-.61v-4.11c-1.36-1.09-3.23-2.07-4.75-2.07-1.87,0-2.89.88-2.89,2.34,0,2.41,2.95,4.45,5.23,4.45Z"/>
    <path d="M93.38,122.56v-12.83h-2.34v-.17l6.42-1.66v.07c-.68.78-.78,1.83-.78,3.29h.07c1.12-1.94,3.16-3.36,5.6-3.36,2.78,0,4.55,1.83,4.55,4.92v11.03l2.27-.17.07.07v.71l-.07.03h-7.71v-.1c1.9-.48,2.07-.78,2.07-1.83v-9.03c0-2.17-1.49-3.53-3.5-3.53-1.29,0-2.41.61-3.29,1.66v12.19l2.24-.17.03.07v.71l-.03.03h-7.94v-.1c2.14-.48,2.34-.78,2.34-1.83Z"/>
    <path d="M112.32,122.56v-12.83h-2.34v-.17l6.42-1.66v.07c-.68.78-.78,1.83-.78,3.29h.07c1.12-1.94,3.16-3.36,5.6-3.36,2.78,0,4.55,1.83,4.55,4.92v11.03l2.27-.17.07.07v.71l-.07.03h-7.71v-.1c1.9-.48,2.07-.78,2.07-1.83v-9.03c0-2.17-1.49-3.53-3.5-3.53-1.29,0-2.41.61-3.29,1.66v12.19l2.24-.17.03.07v.71l-.03.03h-7.94v-.1c2.14-.48,2.34-.78,2.34-1.83Z"/>
    <path d="M138.56,123.21v-.65c-1.05,1.36-2.85,2.27-4.75,2.27-2.51,0-4.72-1.56-4.72-4.41s2.41-4.85,6.31-4.85c.78,0,2.04.07,3.09.2v-1.87c0-2.61-1.7-4.11-4.14-4.11-1.8,0-3.26.81-4.31,1.8l-.1-.07c1.39-1.94,4.01-3.63,6.96-3.63,3.26,0,4.96,2,4.96,5.3v10.22l2.24-.27v.14c-.75.71-2.44,1.56-3.73,1.56-1.12,0-1.8-.61-1.8-1.63ZM136.08,123.01c.92,0,1.77-.27,2.41-.61v-4.11c-1.36-1.09-3.23-2.07-4.75-2.07-1.87,0-2.89.88-2.89,2.34,0,2.41,2.95,4.45,5.23,4.45Z"/>
    <path d="M153.73,112.58c0-7.16,5.43-13.04,12.59-13.04s12.19,5.36,12.19,12.46-5.47,13-12.66,13-12.12-5.4-12.12-12.42ZM176.57,115.4c0-6.14-6.52-13.88-13.31-13.88-4.48,0-7.64,2.85-7.64,7.6,0,6.21,6.59,13.92,13.27,13.92,4.48,0,7.67-2.89,7.67-7.64Z"/>
    <path d="M186.21,102.4v5.84h6.14l.03.07v1.19l-.03.03-6.14-.48v11.24c0,1.53.78,2.51,2.14,2.51,1.87,0,3.39-1.77,4.11-4.24h.1c-.68,3.46-2.61,6.28-5.87,6.28-2.41,0-3.84-1.56-3.84-3.94v-12.05h-2.34v-.17l2.34-.44v-3.97l3.26-1.87h.1Z"/>
    <path d="M195.95,122.56v-12.83h-2.34v-.17l6.42-1.66v.07c-.68.81-.78,2.07-.78,3.67h.03c.81-2.27,2.34-3.73,4.38-3.73.71,0,1.46.2,2.1.48l.07.2-.71,5.74h-.14l-.37-3.02c-.65-.65-1.63-1.09-2.61-1.09-1.32,0-2.1.88-2.68,2v11.64l2.92-.17.03.07v.71l-.03.03h-8.62v-.1c2.14-.48,2.34-.78,2.34-1.83Z"/>
    <path d="M215.98,123.21v-.65c-1.05,1.36-2.85,2.27-4.75,2.27-2.51,0-4.72-1.56-4.72-4.41s2.41-4.85,6.31-4.85c.78,0,2.04.07,3.09.2v-1.87c0-2.61-1.7-4.11-4.14-4.11-1.8,0-3.26.81-4.31,1.8l-.1-.07c1.39-1.94,4.01-3.63,6.96-3.63,3.26,0,4.96,2,4.96,5.3v10.22l2.24-.27v.14c-.75.71-2.44,1.56-3.73,1.56-1.12,0-1.8-.61-1.8-1.63ZM213.5,123.01c.92,0,1.77-.27,2.41-.61v-4.11c-1.36-1.09-3.23-2.07-4.75-2.07-1.87,0-2.89.88-2.89,2.34,0,2.41,2.95,4.45,5.23,4.45Z"/>
    <path d="M224.64,122.56v-12.83h-2.34v-.17l6.42-1.66v.07c-.68.78-.78,1.83-.78,3.29h.07c1.12-1.94,3.16-3.36,5.6-3.36,2.78,0,4.55,1.83,4.55,4.92v11.03l2.27-.17.07.07v.71l-.07.03h-7.71v-.1c1.9-.48,2.07-.78,2.07-1.83v-9.03c0-2.17-1.49-3.53-3.5-3.53-1.29,0-2.41.61-3.29,1.66v12.19l2.24-.17.03.07v.71l-.03.03h-7.94v-.1c2.14-.48,2.34-.78,2.34-1.83Z"/>
    <path d="M246.77,102.4v5.84h6.14l.03.07v1.19l-.03.03-6.14-.48v11.24c0,1.53.78,2.51,2.14,2.51,1.87,0,3.39-1.77,4.11-4.24h.1c-.68,3.46-2.61,6.28-5.87,6.28-2.41,0-3.84-1.56-3.84-3.94v-12.05h-2.34v-.17l2.34-.44v-3.97l3.26-1.87h.1Z"/>
    <path d="M254.71,116.73c0-4.62,3.26-8.83,7.94-8.83,4.28,0,7.5,3.53,7.5,8.15s-3.26,8.79-7.94,8.79c-4.28,0-7.5-3.53-7.5-8.11ZM268.53,118.9c0-4.07-4.55-9.2-8.49-9.2-2.34,0-3.7,1.39-3.7,4.18,0,4.07,4.55,9.2,8.49,9.2,2.38,0,3.7-1.39,3.7-4.18Z"/>
  </g>
  <g>
    <path d="M148.16,38.5v-.41c0-2.34.83-2.9,6.07-3.72v-.55h-19.37l-.14.13v1.66l.14.14,5.93-.35v48.39c-.88-.42-1.75-.89-2.59-1.41-.84-.51-1.66-1.07-2.46-1.69-7.49-5.65-12.94-14.95-12.94-23.01,0-9.35,6.01-15.08,14.66-15.42v-3.04c-10.92,3.13-18.53,13.41-18.53,25.49,0,9.62,4.7,17.73,12.13,21.99.64.37,1.3.71,1.98,1.01,2.2,1.01,4.6,1.69,7.16,2.01-1.13,4.21-3.93,7.07-8.93,9.51l.14.28c5.75-1.97,9.87-4.27,12.57-7.39.62-.71,1.17-1.46,1.64-2.27.73-1.24,1.3-2.58,1.7-4.07.3-1.05.52-2.19.65-3.4.13-1.12.19-2.3.19-3.55v-34.02c9.63,4.95,17.16,16.2,17.16,25.62s-6.44,15.47-15.49,15.51c-.08.41-.18.8-.29,1.18-.22.81-.48,1.57-.81,2.3,11.98-2.44,20.52-13.18,20.52-25.88s-8.83-23.35-21.09-25.04Z"/>
    <path d="M151.68,24.46h0c-3.93,0-7.11,3.18-7.11,7.11h0s0-.05,0-.05h0c0-3.93-3.18-7.11-7.11-7.11h0,0c3.93,0,7.11-3.18,7.11-7.11h0s0,.05,0,.05h0c0,3.93,3.18,7.11,7.11,7.11h0Z"/>
  </g>
</svg>