<?xml version="1.0" encoding="UTF-8"?>
<svg id="Capa_2" data-name="Capa 2" xmlns="http://www.w3.org/2000/svg" viewBox="0 0 50.32 82.22" fill="currentColor">
  <g id="Capa_1-2" data-name="Capa 1">
    <g>
      <path d="M29.23,21.21v-.41c0-2.34.83-2.9,6.07-3.72v-.55H15.93l-.14.13v1.66l.14.14,5.93-.35v48.39c-.88-.42-1.75-.89-2.59-1.41-.84-.51-1.66-1.07-2.46-1.69-7.49-5.65-12.94-14.95-12.94-23.01,0-9.35,6.01-15.08,14.66-15.42v-3.04C7.61,25.06,0,35.34,0,47.42c0,9.62,4.7,17.73,12.13,21.99.64.37,1.3.71,1.98,1.01,2.2,1.01,4.6,1.69,7.16,2.01-1.13,4.21-3.93,7.07-8.93,9.51l.14.28c5.75-1.97,9.87-4.27,12.57-7.39.62-.71,1.17-1.46,1.64-2.27.73-1.24,1.3-2.58,1.7-4.07.3-1.05.52-2.19.65-3.4.13-1.12.19-2.3.19-3.55V27.52c9.63,4.95,17.16,16.2,17.16,25.62s-6.44,15.47-15.49,15.51c-.08.41-.18.8-.29,1.18-.22.81-.48,1.57-.81,2.3,11.98-2.44,20.52-13.18,20.52-25.88s-8.83-23.35-21.09-25.04Z"/>
      <path d="M25.64,14.22v.05c0-3.93,3.18-7.11,7.11-7.11-3.93,0-7.11-3.18-7.11-7.11v-.05c0,3.93-3.18,7.11-7.11,7.11,3.93,0,7.11,3.18,7.11,7.11Z"/>
    </g>
  </g>
</svg>