<?xml version="1.0" encoding="UTF-8"?>
<svg id="Capa_1" xmlns="http://www.w3.org/2000/svg" version="1.1" viewBox="0 0 243.5 33" fill="currentColor">
  <!-- Generator: Adobe Illustrator 30.5.1, SVG Export Plug-In . SVG Version: 2.1.4 Build 3)  -->
  <path d="M4.7,25.7V1.5l-2.9.2h0v-.9h0c0,0,9.5,0,9.5,0v.3c-2.6.4-3,.7-3,1.8v20.1c0,5.5-2.4,8.2-8.2,10.2h0c3.3-1.8,4.7-3.8,4.7-7.3h0Z"/>
  <path d="M12.6,17.3c0-4.6,3.3-8.8,7.9-8.8s7.5,3.5,7.5,8.2-3.3,8.8-7.9,8.8-7.5-3.5-7.5-8.1ZM26.4,19.5c0-4.1-4.6-9.2-8.5-9.2s-3.7,1.4-3.7,4.2c0,4.1,4.6,9.2,8.5,9.2s3.7-1.4,3.7-4.2Z"/>
  <path d="M31.9,23.2V1.8h-2.3c0-.1,6.4-1.8,6.4-1.8h0c-.7.8-.7,1.9-.7,3.4v8.4h0c.9-1.7,2.9-3.3,5.5-3.3s4.6,1.8,4.6,4.9v11l2.3-.2h0v.8h0s-7.7,0-7.7,0h0c1.9-.6,2.1-.9,2.1-1.9v-9c0-2.2-1.5-3.5-3.5-3.5s-2.5.7-3.3,1.7v12.1l2.2-.2h0v.8h0s-7.9,0-7.9,0h0c2.1-.6,2.3-.9,2.3-1.9h0Z"/>
  <path d="M58.1,23.8v-.7c-1.1,1.4-2.9,2.3-4.8,2.3s-4.7-1.6-4.7-4.4,2.4-4.8,6.3-4.8,2,0,3.1.2v-1.9c0-2.6-1.7-4.1-4.1-4.1s-3.3.8-4.3,1.8h-.1c1.4-2,4-3.7,7-3.7s5,2,5,5.3v10.2l2.2-.3h0c-.8.8-2.4,1.7-3.7,1.7s-1.8-.6-1.8-1.6h0ZM55.6,23.6c.9,0,1.8-.3,2.4-.6v-4.1c-1.4-1.1-3.2-2.1-4.8-2.1s-2.9.9-2.9,2.3c0,2.4,2.9,4.5,5.2,4.5Z"/>
  <path d="M66.8,23.2v-12.8h-2.3v-.2l6.4-1.7h0c-.7.8-.8,1.9-.8,3.4h0c1.1-1.9,3.2-3.4,5.6-3.4s4.6,1.8,4.6,4.9v11l2.3-.2h0v.8h0s-7.7,0-7.7,0h0c1.9-.6,2.1-.9,2.1-1.9v-9c0-2.2-1.5-3.5-3.5-3.5s-2.4.6-3.3,1.7v12.2l2.2-.2h0v.8h0s-7.9,0-7.9,0h0c2.1-.6,2.3-.9,2.3-1.9h0Z"/>
  <path d="M85.7,23.2v-12.8h-2.3v-.2l6.4-1.7h0c-.7.8-.8,1.9-.8,3.4h0c1.1-1.9,3.2-3.4,5.6-3.4s4.6,1.8,4.6,4.9v11l2.3-.2h0v.8h0s-7.7,0-7.7,0h0c1.9-.6,2.1-.9,2.1-1.9v-9c0-2.2-1.5-3.5-3.5-3.5s-2.4.6-3.3,1.7v12.2l2.2-.2h0v.8h0s-7.9,0-7.9,0h0c2.1-.6,2.3-.9,2.3-1.9h0Z"/>
  <path d="M111.9,23.8v-.7c-1.1,1.4-2.9,2.3-4.8,2.3s-4.7-1.6-4.7-4.4,2.4-4.8,6.3-4.8,2,0,3.1.2v-1.9c0-2.6-1.7-4.1-4.1-4.1s-3.3.8-4.3,1.8h-.1c1.4-2,4-3.7,7-3.7s5,2,5,5.3v10.2l2.2-.3h0c-.8.8-2.4,1.7-3.7,1.7s-1.8-.6-1.8-1.6h0ZM109.5,23.6c.9,0,1.8-.3,2.4-.6v-4.1c-1.4-1.1-3.2-2.1-4.8-2.1s-2.9.9-2.9,2.3c0,2.4,2.9,4.5,5.2,4.5Z"/>
  <path d="M127.1,13.2c0-7.2,5.4-13,12.6-13s12.2,5.4,12.2,12.5-5.5,13-12.7,13-12.1-5.4-12.1-12.4ZM150,16c0-6.1-6.5-13.9-13.3-13.9s-7.6,2.8-7.6,7.6,6.6,13.9,13.3,13.9,7.7-2.9,7.7-7.6h0Z"/>
  <path d="M159.6,3v5.8h6.2v1.3h0s-6.1-.5-6.1-.5v11.2c0,1.5.8,2.5,2.1,2.5s3.4-1.8,4.1-4.2h.1c-.7,3.5-2.6,6.3-5.9,6.3s-3.8-1.6-3.8-3.9v-12h-2.3v-.2l2.3-.4v-4l3.3-1.9h.1,0Z"/>
  <path d="M169.3,23.2v-12.8h-2.3v-.2l6.4-1.7h0c-.7.9-.8,2.1-.8,3.7h0c.8-2.3,2.3-3.7,4.4-3.7s1.5.2,2.1.5v.2c0,0-.6,5.7-.6,5.7h-.1l-.4-3c-.6-.7-1.6-1.1-2.6-1.1s-2.1.9-2.7,2v11.6l2.9-.2h0v.8h0s-8.6,0-8.6,0h0c2.1-.6,2.3-.9,2.3-1.9h0Z"/>
  <path d="M189.4,23.8v-.7c-1,1.4-2.9,2.3-4.8,2.3s-4.7-1.6-4.7-4.4,2.4-4.8,6.3-4.8,2,0,3.1.2v-1.9c0-2.6-1.7-4.1-4.1-4.1s-3.3.8-4.3,1.8h-.1c1.4-2,4-3.7,7-3.7s5,2,5,5.3v10.2l2.2-.3h0c-.8.8-2.4,1.7-3.7,1.7s-1.8-.6-1.8-1.6h0ZM186.9,23.6c.9,0,1.8-.3,2.4-.6v-4.1c-1.4-1.1-3.2-2.1-4.8-2.1s-2.9.9-2.9,2.3c0,2.4,3,4.5,5.2,4.5Z"/>
  <path d="M198,23.2v-12.8h-2.3v-.2l6.4-1.7h0c-.7.8-.8,1.9-.8,3.4h0c1.1-1.9,3.2-3.4,5.6-3.4s4.5,1.8,4.5,4.9v11l2.3-.2h0v.8h0s-7.7,0-7.7,0h0c1.9-.6,2.1-.9,2.1-1.9v-9c0-2.2-1.5-3.5-3.5-3.5s-2.4.6-3.3,1.7v12.2l2.2-.2h0v.8h0s-7.9,0-7.9,0h0c2.1-.6,2.3-.9,2.3-1.9Z"/>
  <path d="M220.2,3v5.8h6.2v1.3h0s-6.1-.5-6.1-.5v11.2c0,1.5.8,2.5,2.1,2.5s3.4-1.8,4.1-4.2h.1c-.7,3.5-2.6,6.3-5.9,6.3s-3.8-1.6-3.8-3.9v-12h-2.3v-.2l2.3-.4v-4l3.3-1.9h.1,0Z"/>
  <path d="M228.1,17.3c0-4.6,3.3-8.8,7.9-8.8s7.5,3.5,7.5,8.2-3.3,8.8-7.9,8.8-7.5-3.5-7.5-8.1ZM241.9,19.5c0-4.1-4.5-9.2-8.5-9.2s-3.7,1.4-3.7,4.2c0,4.1,4.5,9.2,8.5,9.2s3.7-1.4,3.7-4.2Z"/>
</svg>