<?xml version="1.0" encoding="UTF-8"?>
<svg id="Capa_1" data-name="Capa 1" xmlns="http://www.w3.org/2000/svg" viewBox="0 0 421.33 202.53">
  <g>
    <path d="M248.96,145.59c-1.73-.19-3.18-5.25-1.81-6.13l15.17-7.41c-19.81-4.14-62.15,5.24-70.5-2.03-.77-.67-.17-3.63.67-4.29,31.3-9.92,64.42-15.22,96.56-20.35-17.77.41-34.13,3.66-51.46,5.7l-65.18,7.66c-11.94,1.4-23.1,2.86-34.93,5.06-3.44.64-7.27.56-11.01.34,4.28,16.98,9.62,42.15.84,55.7-4.76,7.35-14.15,10.14-22.76,8.99-25.02-3.32-48.01-16.84-61.12-38.24-6.99-11.42-5.64-25.25,2.76-35.07,9.44-11.04,21.94-18.05,36.31-22.42-10.34-6.18-20.35-20.76-16.89-26.51.75-1.25,3.61-3.03,5.15-3.25l32.33-4.48c-1.34-10.18-3.19-20.51-2.4-30.59.67-8.57,6.89-13.97,15.01-13.77,13.58-1.64,26.29,5.33,31.38,17.92,7.49,18.51-19.7,26.02-38.86,29.7l6.77,26.31c1.98,7.7,4.47,14.47,6.92,21.99l3.24,9.91,17.48-1.61,13.85-1.76,108.08-13.64c23.8-3,50.26-5.7,73.52-2.93l-.27,3.31c-.06.72-2.18,1.44-2.92,1.53l-13.26,1.62c-16.4,2.01-32.29,1.81-48.47,4.76-23.14,4.21-45.34,8.24-68.54,15.36,11.01,1.83,21.15.15,32.02-.02,11.35-.59,33.09-.99,34.98,3.75.41,1.03-1.17,3.61-2.26,4.18l-11.85,6.21.88,1.55c.72,1.27-.11,2.89-1.57,3.01-2.77.22-5.39.21-7.88-.07ZM143.13,42.64c2.4-3.7.44-8.32-1.51-11.63-5.78-9.79-16.83-14.42-28.17-12.28-2.85.54-6.36,3.42-6.87,6.38-1.95,11.39-1.18,21.99,1.66,32.96,12.91-2.99,28.82-6.04,34.9-15.43ZM107.14,90.15s2.29-.91,2.94-1.16l-6.24-26c-11.9,1.65-22.71,3.3-34.52,5.89.97,6.82,5.33,10.37,9.41,15.14,6.35,7.43,17.62,9.21,25.46,3.96.31-.4,1.5-2.58,1.82-2.18.4.5.98,1.14,1.01,1.64l.13,2.71ZM104.94,184.97c11.79,1.22,19.68-6.2,21.23-16.71,2.46-16.6-1.97-32.03-6.47-47.45l-7.42-25.39c-.33-1.13-1.37-3.33-2.36-3.27l-3.74.25c-5.51,3.19-11.24,4.23-17.41,2.89-23.44,5.29-53.01,24.68-42.94,48.41,9.59,22.62,34.65,38.75,59.11,41.27Z"/>
    <path d="M108.35,189.45c-1.26,0-2.54-.08-3.83-.25-26.19-3.48-48.56-17.48-61.39-38.42-6.99-11.41-5.89-25.35,2.79-35.51,8.74-10.22,20.42-17.52,35.7-22.29-7.59-4.82-14.99-14.03-16.7-20.88-.59-2.37-.46-4.29.39-5.7.8-1.34,3.74-3.19,5.42-3.42l31.96-4.43c-.2-1.49-.41-2.98-.61-4.48-1.18-8.5-2.41-17.3-1.74-25.82.67-8.5,6.65-14.12,14.94-14.12.15,0,.3,0,.46,0,13.88-1.68,26.64,5.61,31.72,18.15,1.82,4.5,1.72,8.65-.29,12.35-4.22,7.76-16.8,13.58-38.45,17.79l6.67,25.93c1.48,5.74,3.22,10.92,5.06,16.39.61,1.83,1.24,3.68,1.86,5.57l3.15,9.62,17.19-1.58,13.83-1.75,108.08-13.64c24.76-3.13,50.82-5.65,73.62-2.93l.36.04-.3,3.67c-.09,1.1-2.7,1.8-3.25,1.87l-13.26,1.62c-6.73.82-13.46,1.28-19.98,1.73-9.31.64-18.94,1.29-28.47,3.03l-.32.06c-22.67,4.13-44.1,8.03-66.59,14.81,7,.96,13.59.57,20.54.16,3.18-.19,6.47-.38,9.78-.43,12.34-.64,33.35-.98,35.33,3.99.51,1.29-1.23,4.02-2.44,4.66l-11.51,6.04.69,1.21c.41.72.42,1.58.03,2.31-.38.72-1.09,1.19-1.9,1.25-2.87.23-5.47.21-7.95-.07h0c-1.19-.13-2.13-1.92-2.51-3.53-.37-1.61-.17-2.84.54-3.29l14.2-6.94c-8.95-1.59-21.94-.72-34.53.12-15.62,1.05-30.38,2.04-35.04-2.03-.34-.29-.5-.84-.48-1.61.03-1.15.48-2.72,1.16-3.26l.12-.06c29.41-9.32,60.23-14.54,90.25-19.34-10,.6-19.73,1.98-29.19,3.32-5.14.73-10.46,1.48-15.8,2.11l-65.18,7.66c-10.85,1.28-22.6,2.77-34.91,5.05-3.43.63-7.24.56-10.59.37,4.79,19.08,9.1,42.48.67,55.5-3.84,5.92-11.16,9.42-19.3,9.42ZM115.33,14.86c-7.93,0-13.61,5.35-14.25,13.43-.66,8.44.55,17.19,1.73,25.66.23,1.62.45,3.24.66,4.86l.05.37-32.69,4.53c-1.45.2-4.19,1.92-4.88,3.07-.74,1.24-.85,2.96-.3,5.13,1.73,6.9,9.38,16.26,17.07,20.86l.73.43-.81.25c-15.52,4.72-27.34,12.02-36.13,22.3-8.47,9.91-9.54,23.5-2.72,34.63,12.71,20.75,34.89,34.62,60.85,38.07,9.33,1.24,18.12-2.22,22.39-8.83,8.35-12.89,3.91-36.38-.89-55.4l-.13-.5.51.03c3.42.2,7.39.32,10.92-.33,12.34-2.29,24.09-3.78,34.96-5.06l65.18-7.66c5.33-.63,10.64-1.38,15.78-2.1,11.5-1.63,23.39-3.31,35.71-3.59l.07.75c-31.96,5.1-65.02,10.37-96.43,20.31-.41.39-.81,1.65-.83,2.65-.01.6.11.92.22,1.03,4.43,3.86,19.04,2.88,34.5,1.84,13.16-.88,26.76-1.79,35.83.1l1.07.22-16.16,7.89c-.37.24-.45,1.26-.17,2.47.37,1.58,1.18,2.88,1.86,2.95h0c2.44.27,4.99.3,7.81.07.56-.04,1.03-.36,1.29-.86.27-.5.26-1.1-.02-1.59l-1.07-1.89,12.2-6.39c1.02-.54,2.39-2.96,2.09-3.71-1.3-3.27-14.25-4.58-34.61-3.52-3.31.05-6.59.25-9.76.43-7.53.45-14.64.86-22.34-.42l-1.57-.26,1.52-.47c23.11-7.09,45.04-11.09,68.26-15.32l.32-.06c9.57-1.74,19.22-2.4,28.55-3.04,6.5-.44,13.23-.9,19.94-1.72l13.26-1.62c.94-.12,2.57-.86,2.59-1.19l.25-2.95c-22.63-2.64-48.49-.13-73.07,2.97l-121.92,15.4-17.79,1.64-3.33-10.19c-.62-1.89-1.24-3.74-1.85-5.57-1.85-5.49-3.59-10.68-5.08-16.44l-6.87-26.7.39-.08c21.66-4.17,34.2-9.89,38.33-17.49,1.9-3.49,1.98-7.43.25-11.71-4.94-12.22-17.4-19.32-30.99-17.69-.14,0-.29,0-.43,0ZM107.36,185.47c-.8,0-1.62-.04-2.45-.13-25.75-2.66-50.18-19.72-59.42-41.5-3-7.07-2.72-14.15.82-21.05,7.29-14.22,27.08-24.42,42.39-27.87l.08-.02.08.02c5.99,1.3,11.6.37,17.14-2.84l.16-.05,3.74-.25s.04,0,.07,0c1.34,0,2.4,2.61,2.67,3.54l7.42,25.39c4.42,15.12,8.99,30.74,6.48,47.61-1.56,10.51-9.13,17.15-19.19,17.15ZM88.78,95.67c-15.13,3.44-34.64,13.48-41.8,27.46-3.43,6.69-3.7,13.56-.79,20.41,9.13,21.54,33.32,38.42,58.8,41.05h0c10.85,1.13,19.2-5.47,20.82-16.39,2.48-16.7-2.07-32.25-6.46-47.29l-7.42-25.39c-.4-1.37-1.37-3-1.95-3,0,0-.01,0-.02,0l-3.65.24c-5.66,3.26-11.39,4.21-17.52,2.9ZM93.95,91.4c-5.74,0-11.53-2.47-15.51-7.13-.73-.85-1.47-1.67-2.19-2.47-3.34-3.68-6.49-7.15-7.3-12.86l-.05-.34.34-.07c11.44-2.51,22.09-4.17,34.55-5.9l.34-.05,6.4,26.64-.3.12c-3.28,1.3-3.27,1.3-3.42.97l-.03-.14-.13-2.71c-.01-.31-.45-.84-.76-1.22l-.02-.02c-.28.29-.78,1.07-1,1.43-.16.25-.29.46-.37.56l-.09.08c-3.13,2.1-6.78,3.11-10.44,3.11ZM69.74,69.18c.86,5.28,3.87,8.6,7.06,12.12.73.81,1.47,1.63,2.21,2.49,6.27,7.33,17.19,9.05,24.91,3.92.07-.1.17-.27.29-.46.82-1.3,1.23-1.84,1.66-1.87.17-.02.31.06.42.19l.16.19c.42.52.91,1.1.93,1.66l.1,2.19c.59-.23,1.57-.62,2.15-.85l-6.08-25.35c-12.17,1.69-22.62,3.32-33.81,5.77ZM105.71,86.04s0,0,0,0h0ZM107.96,58.52l-.09-.35c-3.01-11.64-3.54-22.16-1.66-33.12.54-3.16,4.23-6.13,7.17-6.69,11.6-2.18,22.81,2.71,28.57,12.46,2.98,5.05,3.47,8.99,1.51,12.03h0c-5.76,8.88-19.96,12.12-32.49,14.98l-2.99.69ZM118.83,18.6c-1.75,0-3.53.16-5.32.5-2.64.5-6.09,3.26-6.57,6.08-1.84,10.74-1.34,21.05,1.56,32.45l2.28-.52c12.39-2.83,26.44-6.03,32.03-14.66l.31.2-.31-.2c1.8-2.78,1.3-6.45-1.52-11.24-4.71-7.97-13.18-12.6-22.46-12.6Z"/>
  </g>
  <path d="M334.27,86.04c-2.7,2.07-6.33,4.9-9.64,5.6-3.99.84-6.35-1.2-7.75-4.44-3.88,3.99-8.08,7.29-13.49,5.96-3.43-6.7-.97-14.72-3.29-22.61l-4.29,8.07-7.61,13.35c-.42.73-3.31,1.19-4.08.95-3.18-.99.25-10.8-1.35-20.43-1.86,1.9-2.82,3.18-3.56,5.01-4.29,10.74-12.5,23.25-17.75,17.66-4.3-4.58-3.34-10.96-4.95-17.81l-7.37,15.31c-.77,1.6-1.53,3.21-2.37,4s-4.6-.06-4.82-1.17l-.91-19.59c-6.57,8.97-9.24,24.41-19.36,22.76-2.13-.35-4.42-4.33-5.7-6.35-10.49,10.6-19.36,2.34-18.86,1.82l-2.22,2.3c-1.97,2.04-4.9,3.72-7.74,3.71-2.61,0-5.8-3.3-6.21-6.19l-2.13-15.29c-5.72,7.68-5.59,16.47-12.68,20.9-1.11.69-4.43-1.19-4.64-2.45l-2.21-13.37-5.91,5.46c-.22,10.03-8.24,18.88-18.68,17.79s-14.03-18.68-7.12-32l5.74-1.41c1.42-4.55,5.3-6.59,9.67-6.35,4.45.24,7.08,3.41,8.4,8.04l1.95,6.86c4.06-2.5,6.03-5.15,6.46-9.18,1.25-11.64,3.32-22.7,7.11-33.6,1.18-3.37,4.85-5.44,7.93-3.33-1.5,11.21-3.32,22.85-6.92,33.45-2.37,6.97-4.67,12.8-1.44,20.8l5.02-9.66c1.84-3.53,4.79-8.62,9.08-9.35,6.58-1.12,3.8,12.87,6.71,23.35,9-3.27,5.7-12.08,10.24-19.64,5.95-9.91,14.05-11.68,16.52-8.77.78.91,1.44,3.09,2.06,4.98.51-1.21,2.5-3.58,3.95-3.71,2.07-.19,4.27,2.33,3.98,4.81l-1.91,16.25c-.06.53,1.1,2.72,1.34,3.2.33.64,2.28-.61,2.71-1.19,6.12-8.32,11.21-25.15,16.71-22.87,5.33,2.2,4.23,8.43,5.37,13.79l5.19-10.83c.79-1.65,2.31-3.7,3.67-3.92,1.48-.24,4.35,1.67,4.58,3.06l3.4,20.36c8.03-7.68,11.61-25.28,18-24.5,5.76.7,6.3,6.6,6.66,11.69l6.23-11.08c.88-1.57,5.89-1.73,7.32-.63s3.3,4.19,3.42,6.14l.95,15.98c5.13-3.37,8.78-6.59,11.13-11.69,0,0,3.93-15.11,18.6-15.14,1.22,0,1.79.85,2.12,1.49.36-.01-.11-1.55.29-1.56,2.32-.05,5.07.08,5.2,1.46.97,9.85-6.8,17.35-3.81,25.04.45,1.15,1.47,1.99,2.68,2.25l9.53,2.07c-.8,4.44-12.87,3.88-15.32,1.64-1.34-1.23-2.43-3.92-3.84-7.23ZM335.02,67.96c.29-3.04-13.83,4.84-11.48,15.44,6.09.8,10.81-8.4,11.48-15.44ZM210.17,69.51c-9.52,5.91-10.13,20.98-5.13,21.64,5.13.68,10.3-13.23,5.13-21.64ZM148.17,84.55c.62-6.82-2.26-13.1-7.46-12.9-3.13,4-3.87,11-.39,14.66,1.41,1.46,7.67.25,7.85-1.76ZM148.12,91.19c-4.76,1.23-8.55,1.67-11.98-1.17-2.35-1.94-3.27-5.65-4.57-9.81-3.75,8.6-1.72,19.89,3.91,21.62,4.87,1.49,10.76-3.69,12.64-10.63Z"/>
</svg>