<?xml version="1.0" encoding="UTF-8"?>
<svg id="Capa_1" data-name="Capa 1" xmlns="http://www.w3.org/2000/svg" viewBox="0 0 893.24 187">
  <defs>
    <style>
      .cls-1 {
        fill: #343539;
      }
    </style>
  </defs>
  <g>
    <path class="cls-1" d="M384.18,76.95v.14s.08-.06.11-.09l-.11-.05Z"/>
    <path class="cls-1" d="M507.54,121.41c-.5-2.57-3.68-5.5-5.98-4.79-5.28,7.88-10.15,15.12-19.94,13.88-1.84-.23-3.35-3.16-2.4-4.23,7.97-.28,14.49-4.23,12.72-7.83-.47-.96-2.21-2.65-3.25-3.01-5.28-1.82-9.59,1.28-12.54,6.17l-10.2-1.03c-1.01-.1-3.23.92-2.93,1.75l1.17,3.24c1.45,4.02-2.49,8.17-6.8,9.2l.43-11.57c.05-1.26-.44-3.55-1.38-4.13-.93-.58-3.94-.51-4.78.32l-10.38,10.41c-1.42,1.43-3.16,3.07-5.02,4.06-1.93-.64-3.22-5.16-1.69-6.63,6.73-6.49,10.53-15.01,9.59-24.23-6.61-2.93-12.17,12.08-13.93,20.25-.21.97-2.69,2.41-3.01,1.72l-1.17-2.56c-.73-1.59-1.65-3.59-2.73-4.27-1.09-.69-4.29.12-5.7.25l-12.59,1.13c-2.12.18-5.82.19-7.97.06-.95,0-1.72,3.37-.79,3.76l3.52,1.49c2.08,4.09-.2,9.97-5.65,11.77l.35-18.84c.03-1.79-1.97-4.52-3.35-5.23-7.37-3.75-27.1,22.8-20.9,28.17.79.68,3.61.51,4.22-.1.61-.63-.76-3.01-.58-3.87,1.38-6.43,7.99-18.18,15.68-20.64l.16,18.65c0,1.59.74,4.16,1.66,5.09.92.94,4.21,1.67,5.57.98,5.8-2.94,8.86-9.77,7.24-16.54l7.62-1.18c-1.13,4.87-2.32,8.64-1.91,13.11.38,3.99,5.34,5.83,8.85,5.03,5.81-1.33,7.69-6.18,9.44-12.32l3.69,7.5c.73,1.48,5.16,2.93,6.51,1.89,5.58-4.29,9.46-9.26,14-14.4l.13,10.12c.02,1.42,1.65,3.96,2.86,4.66,1.42.81,4.19.78,5.73-.13,9.57-5.68,6-12.17,10.4-12.25,1.25-.02,1.97,1.53,2.4,3.16,1.15,4.39,6.4,5.98,10.74,5.69,7.5-.48,13.33-5.22,17.37-11.82.97,2.87,1.47,7.2.18,10.28-.51,1.21-3.85,2.51-4.71,2.03-1.33-1.01-2.99-1.8-4.01-1.54-.87.23-1.88,2.66-1.34,3.45,2.04,2.95,6.68,3.43,10,2.3,5.94-2.01,6.91-10.68,5.38-18.47ZM484.33,119.83c1.45-.45,2.73-.44,2.88.02.14.45-.92,1.18-2.36,1.63-1.45.45-2.73.44-2.87,0-.14-.46.92-1.19,2.36-1.64ZM436.57,114.81c1.28-2.65,2.76-4.58,3.31-4.32.55.27-.03,2.63-1.3,5.28-1.27,2.65-2.75,4.58-3.31,4.32-.55-.27.03-2.63,1.3-5.28ZM415.68,136.58c-1.36-1.34-1.13-5.74-.31-7.26l7.3,1.95c-.25,1.99-3.36,6.37-7,5.32ZM423.92,126.82c-.49.96-2.08,1.13-3.55.38s-2.26-2.14-1.77-3.1,2.08-1.13,3.55-.38c1.47.75,2.26,2.14,1.77,3.1Z"/>
    <path class="cls-1" d="M264.33,119.31c-.29-1.26-1.35-2.8-2.24-3.25-.73-.38-3.35-.18-3.99.39l-9.89,8.87c-1.64-1.66-3.64-3.59-5.27-3.73-4.26-.38-5.65,2.24-11.4,4.79-5.97,2.66-2.28,14.74-10.27,10.85l3.37-8.49c.4-1.02.02-3.51-.97-3.8-.83-.23-2.9.29-3.39.97l-2.36,3.31c.36-13.19-2.05-27.05-14.7-30-14.77-3.44-29.15,3.39-38.95,15.05-2.66,3.17-3.72,8.04.49,10.7,1.94,1.22,5.08,2.18,7.74,3.1-3.23,4.13-5.39,8.68-5.21,13.61.13,3.55,3.29,6.57,6.88,5.74,6.17-1.43,11.27-4.95,15.95-9.39l3.51,6.16c2,3.53,6.08,4.71,9.93,3.63,6.31-1.79,10.42-6.74,12.92-12.61-.12,3.48.27,6.46,4.05,7.26,1.99.43,5.16-.05,7.68-.64,4.36,3.65,10.4,3.54,15.13-.8,4.41,3.7,9.7,3.4,14.95,1.29,9.47-3.79,8.56-11.98,6.03-22.99ZM172.46,143.38c-3.06-.76-1.36-10.9,4.16-14.47,3.68-2.37,9.68.74,10.32,4.97-2.65,4.88-11.67,10.2-14.48,9.5ZM199.94,143.48c-3.01-1.42-5.88-6.33-6.55-9.47l3.13-7.74,11.99-4.29.35-1.72-10.88,2.13,2.14-9.12c.18-.76-.18-2.22-.64-2.82-.47-.61-3.39.47-3.61,1.29l-3.13,11.61-11.04.7c-5.01.31-10.71.8-14.93-3-3.57-3.22,11.66-20.53,30.69-20.19,7.64.14,13.34,3.94,15.55,11.15,3.93,12.84-.29,30.49-13.06,31.45ZM233.19,139.17c-.92-.66-.33-3.95.68-4.1l8.73-.04c-.76,3.42-6.15,5.4-9.41,4.14ZM240.59,130.59c-1.98.32-3.7-.08-3.84-.9-.13-.83,1.37-1.75,3.35-2.07,1.99-.33,3.7.08,3.84.9s-1.37,1.75-3.35,2.07ZM255.29,138.28c-3.13,1.15-6.35,1.61-8.63-.5l1.46-6.31c3.4-3.79,6.35-6.55,10.9-10.37,2.99,8.32,3.67,14.48-3.73,17.18Z"/>
    <path class="cls-1" d="M192.36,84.32c9.08-2.78,14.28-10.46,12.8-19.22-7.99-2.46-14.22,6.06-18.3,13.74-.95.31-2.86.82-2.77,1.56l.31,2.93c.2,1.89-3.59,3.85-5.86,3.67-1.72-7.47,6.28-16.4.9-16.44-1.05-.02-2.97,1.21-3.28,2.29-2.21,7.57-6.43,14.42-15.11,15.34-.6-6.31,6.15-11.97,2.11-14.23-3.8-2.12-4.2,7.7-12.1,12.48.43-2.71.57-4.93-.12-7.19-1.01-3.27-3.47-5.07-7.1-4.5-7.31,1.15-14.05,7.15-15.46,14.78-.18.97-.29,3.02-.94,2.76l-2.95-1.16c.52-7.2,7.06-11.4,5.84-15.11-1.89-5.73-14.03-.42-17.33-.36-5.95.1-12.59-1.59-16.85,4.45l-2.61,6.01c-.97,2.25-1.01,6.99.18,9.14,1.9,3.48,6.49,3.74,9.86,2.43,7.07-2.74,11.4-9.87,10.58-17.62,3.68-1.79,6.72-2.72,10.87-2.69-3.03,5.32-6.37,10.08-4.09,16.04,1.15,3.01,6.39,2.95,9.04,1.81,2.86-1.22,5.53-1.58,8.26-1.43l-3.94,2.59c-.53.52-1.1,2.41-.64,3.02.45.61,2.5.57,3.27.18l5.78-2.98c-2.2,6.55-4.56,12.3-7.7,18.49.64,1.13,3.3,2.15,4.3,1.54l6.84-16.54c.8-1.93,1.47-6.12,2.98-7.2l6.61-4.71c1.06,2.68,2.78,4.13,5.56,4.26,4.15.21,7.99-2.03,11.52-4.76,1.93,2.54,4.21,4.21,7.5,3.61,1.91-.35,4.4-2.17,6.47-4.21,5.53,2.69,12.53,2.62,17.28-2.82-2.88-2.32-7.67,2.14-11.68.05ZM97.62,92.93c-1.45-1.63-.18-7.13,1.81-7.91l11.39-3.68c-1.16,8.32-9.57,15.7-13.2,11.58ZM132.84,89.75c1.7-6.21,6.98-11.21,13.64-10.5-.59,7.27-6.94,10.87-13.64,10.5ZM201.39,69.25c-.49,4.98-3.98,8.69-9.31,10.18,1.42-4.18,4.32-8.09,9.31-10.18Z"/>
    <path class="cls-1" d="M510.6,73.5l-1.05-7.75c-.13-.95-2.73-2.32-3.59-1.98-.72.29-1.51,1.32-2.11,2.29l-6.1,10c-2.43,3.98-4.58,7.7-10.06,8.71l2.19-8.31c.23-.87.64-3.19-.09-3.48l-2.7-1.05c-1.81-2.81-4.49-4.21-8.16-3.35-5.03,1.19-8.15,5.61-9.52,10.7-1.11,4.16-6,7.87-9.96,4.93-1.96-1.45-.64-5.57.21-7.42l5.98-13.03,10.77-3.28c.1-.43-.04-2.07-.53-2.07l-2.47.04-5.48.14c-.87-1.62-2.67-3.35-3.51-2.76-.72.5-1.75,1.91-2.75,3.27-6.2,1.9-13.51-.85-12.99,2.66.1.7,1.63,2.02,2.38,2.05l8.64.34-6.1,13.74c-2.07,1.64-6.51,3.54-8.82,4.48-.87-7.3-2.98-14.32-7.81-12.49-4.66,7-11.56,13.53-20.46,13.7,4.39-4.88,8.16-10.15,5.44-15.98-1.34-2.24-6.43-1.6-8.18-.1-4.73,4.04-6.69,8.6-5.69,14.89-4.24,1.67-10.41-1.54-9.53,1.82,1.29,4.87,6.27,3.8,11.89,2.47,12.21,3.59,18.97-1.57,27.83-10.53,1.26,2.15,1.86,5.16,1.45,7.7l-8.41.9c-.9.1-2.62,1.12-2.83,2.05-.63,2.81,5.95,4.76,14.71.84l10.09-4.51c1.09,2.53,2.76,4.97,4.58,5.68,6.91,2.68,9.3-2.93,12.55.35,3.99,4.05,9.36,2.13,12.88-1.58,9.02,5.95,16.02-4.91,21.63-15.75,2.12,4.82.17,11.06-5.76,12.18-1.18.23-2.72,1.7-2.59,2.65.1.77,1.97,2.03,2.79,1.95,7.51-.73,12.22-7.86,11.25-15.13ZM412.48,79.96c.02-3.5,1.34-5.9,4.33-8.7l2.33.45c-2.13,4.71-3.09,5.94-6.66,8.25ZM475.41,86.59c-1.69-5.6,1.55-13.95,6.44-13.82,2.2.06,2.37,12.23-6.44,13.82Z"/>
    <path class="cls-1" d="M689.74,78.22l-.16-10.15c-.88-2.7-5.46-1.79-7.06-.33l-12.16,11.08.02-7.66c9.09-3.72,14.09-10.87,16.22-20.18.68-2.95,1.82-8.01-.05-10.33-2.27-2.85-7.14-1.1-9.36,1.1-6.96,6.87-9.38,16.37-10.69,25.99l-4.27.31c-.23.02-.43.16-.6.41v2.88h-1.28s-.02.04-.02.06l-.02-.06h-1.11v-.23c0-2.69-1.68-5.16-4.25-5.93-.02,0-.04,0-.06-.02-1.09-.31-2.24-.5-3.39-.56-4.29-.26-8.15,2.33-10.05,6.18-4.77,9.64-18.13,15.49-22.07,12.22-3.01-2.5-1.54-6.39-.16-9.3,1.56-3.29,4.91-8.02,9.31-6.07,3.77,1.66-3.27,11.29.49,11.61,4.32.35,6.52-8.61,3.52-13.99-1.27-2.28-6.03-3.14-8.48-2.49-8.5,2.25-13.82,17.23-8.66,22.78,5.23,5.61,17.34,2.07,24.61-5.98,1.02,3.08,1.84,5.06,3.43,6.26,1.6,1.23,4.72,1.74,6.7,1.19,5.11-1.39,7.74-5.56,8.69-10.65l6.71-3.9,1.59,11c.3,2.02,4.71,1.25,5.91-.05l10.9-11.77c.49,3.86.76,6.89,1.99,9.66.63,1.41,4.32,2.53,5.63,1.97,1.22-.52,2.49-2.2,3.28-3.83l-5.1-1.2ZM684.39,43.61c.06,8.28-5.53,18.93-13.24,22.14.72-8.7,5.29-20.45,13.24-22.14ZM646.45,81.96c-1.86-.82-2.12-5.98-.92-7.52l8.8,2.07c0,2.69-3.86,7.24-7.88,5.44ZM655.94,72.07c-3.56.86-5.96,0-7.2-2.6,1.17-2.86,8.09.23,7.2,2.6Z"/>
    <path class="cls-1" d="M84.32,52.44c.35-1.09.98-2.44,1.56-2.67s1.71-.08,3.45.12l-8.51,26.23c16.16-2.79,36.64-9.56,44.7-23.08,2.5-4.2,1.65-8.58-2.12-11.74-2.74-2.29-7.02-4.01-11.24-3.94-19.36.33-38.38,5.12-55.45,14.3-9.68,5.21-17.4,12.84-23.18,21.87l-1.75,2.73c-.41.65-3.11.41-3.42-.3-1.99-4.54,16.57-20.81,24.18-25.45,17.15-10.44,37.86-15.21,57.96-16.61,5.49-.38,10.96,1.16,14.74,3.88,6.58,4.75,7.73,12.42,2.99,18.79-10.31,13.84-31.72,20.36-49.02,23.2l-11.42,22.29c-1.47.1-3.32-.04-3.99-.62-.98-.86.41-2.57,1.12-3.68,3.62-5.71,6.77-11.54,9.91-17.64-2.27-.53-4.56-1.13-5.17-2.22-.69-1.24-.48-4.37.01-5.69l1.38-1.71c.31-.38,2.29-.64,2.37-.15.1.65.12,1.97.04,2.89l-.22,2.74c-.05.58,1.9.95,2.38.61s1.41-1.45,1.65-2.22l7.04-21.94Z"/>
    <path class="cls-1" d="M149.1,125.27c-1.01-.6-4.39-.8-5.35-.14l-5.51,3.84c-.76-2.47-3.16-4.24-6.02-3.26-2.44.84-5.52,2.71-8.03,4.12-1.51-1.24-3.64-3.25-5.2-3.47-1.55-.22-4.42,1.11-5.65,1.87-4.69,2.86-6.16,5.86-8.2,10.92-1.95,4.84-14.23,10.03-15.71,5.78-3.98-11.4,8.57-20.67,10.33-20.15.76.23,1.99,1.36,2.78,2.07.52.47,2.36.11,2.67-.51.31-.64.21-2.2-.08-2.84-1.37-2.98-4.05-4.14-7.09-2.94-9.2,3.63-14.93,13.66-13.57,23.44.64,4.51,4.14,7.14,8.56,6.67,4.87-.53,8.75-2.84,13.02-5.85l2.5,3.16c4.07,2.28,8.48.68,11.95-1.88,3.84-2.82,5.68-6.37,5.13-11.61,2.01-1.96,4.48-3.54,7.66-4.87,1.37,7.49-3.64,13.9,1.1,14.43,5.67.64,3.41-11.22,12.14-14.85,1.41,5.38.49,10.37-.4,15.86-.17,1.05,2.52,2.68,3.4,2.1,1.78-1.17,4.7-18.81-.43-21.87ZM111.03,143.14l9.27-4.7c-.44,4-6.08,7.35-9.27,4.7ZM114.14,136.84c-.18-1.91.62-4.35,1.97-5.45,1.54-1.25,3.97-.73,4.55,1.23l-6.52,4.22Z"/>
    <path class="cls-1" d="M342.03,137.15c4.65-1.32,8.16-2.94,10.87-6.52,1.85-2.44,2.79-7.77.05-9.63-3.48-2.38-8.53-1.29-11.56.96-7.42,5.51-3.18,13.54-8.78,16.33-2.38,1.19-5.68.55-6.91-2.44-1.71-4.17-1.29-9.32.29-13.51l16-4.5c.68-.18,1.88-2.77,1.25-2.9-.49-.08-1.93-.23-2.57-.09l-13.1,2.81,5.37-13.51c.45-1.12.1-3.52-.83-4.18-4.49-3.19-8.45,9.59-10.29,18.35-6.29,1.32-13.54-1.6-13.78.14l-.44,3.16,12.05,1.62c-4.18,6.14-10.19,11.77-15.98,15.06-.84.47-1.25,3.09-.57,3.55,3.1,2.16,9.14-3.06,13.25-7.38l3.88-4.1c.27,4.29.86,7.58,3.55,10.29,1.7,1.7,6.38,3.64,8.86,2.15l4.95-2.98c5.62,5.28,14.24,5.34,19.2-.4-1.85-4.4-8,3.66-14.74-2.3ZM350.48,124.68c-1.2,4.35-4.88,7.08-9.22,7.69-.2-4.79,4.19-8.61,9.22-7.69Z"/>
    <path class="cls-1" d="M685.93,117.52c-2.29-.03-3.54-.67-4.95-2.66l-10.63.09c-1.34.01-2.77,2.96-3.06,4.65l17.62.64c.62.02,2.02.72,2.38,1.19.45.59-1.32,2.49-2.14,2.52l-19,.79c-.64,3.98,2.08,7.06,6.02,7.5,2.24.25,6.06.22,7.57-.85l2.67-2.4c.72-.65,3.38.31,3.89.92-1.17,4.03-4.58,6.48-8.85,7.14-5.33.82-11.89-.77-15.02-5.53-4.26-6.47,1.59-13.3.12-20.5l14.17-1.52,3.83-.67c.98-.17,1.72,1.76,1.92,3.79,3.91.19,9.3.67,13.13-.16,2.46-.53,2.71-.77,5.15.07,6.5,2.24,15.71-3.94,17.31-.65,2.45,5.03-2.5,11.37-.64,20.02-.3.78-1.98,1.83-2.8,1.65s-2.81-1.92-2.74-2.84l1.02-14.3-12.56,1.5.73,15.21c.04.88-1.16,2.4-1.95,2.53s-3.28-.94-3.32-1.87l-.71-16.13-9.12-.11Z"/>
    <path class="cls-1" d="M611.77,147.35l-42.55,1.21-13.49-.25c-.7-.01-.85-2.53-.51-2.64l38.4-.98,76.19-1.71,77.56-1.38,37.91,1.12-.11,2.38c-.02.49-1.5.66-2.15.78l-40.14-1.25-72.84,1.35-58.28,1.37Z"/>
    <path class="cls-1" d="M850.13,78.18c-3.14-1.11-2.73-5.25-1.66-7.46,1.35-2.79.48-4.7-1.08-6.86-2.06-2.84-4.86-4.61-8.94-3.15-5.89,2.09-10.65,8.11-12.29,14.3-3.98-2.02-4.91,1.38-8.06,1.18-.55-.03-1.29-2.03-1.15-2.58l1.94-7.72c.26-1.01-.31-2.93-1.06-3.48-.63-.47-2.88.23-3.2,1.02l-4.34,10.67c-1.88,4.62-7.96,7.99-12.67,5.73-2.24-1.88-1.07-6.57.39-9.22,2.27-4.08,8.24-5.25,13.73-4.77.2-1.58-1.97-3.18-3.69-3.47-7.27-1.24-12.35,1.83-15.09,8.24-2.19,5.12-1.7,12.28,5.19,14.08,6.22,1.62,12.22-2.46,15.11-7.3,2.06,2.12,4.43,3.96,6.91,3.11,1.63-.56,3.68-2.31,5.83-4.18,1.73,4.06,5.38,6.94,10.2,5.91,2.51-.54,5.24-2.07,7.67-3.82,4.12,6.03,11.22,4.4,17.81-.2-1.81-4.76-7.51,1.38-11.53-.02ZM840.55,74.34c-1.11,3.47-8.51,5.39-9.38,1.81-.57-5.62,6.42-11.65,12.27-10.91l-2.9,9.1Z"/>
    <path class="cls-1" d="M773.96,118c-.95-2.86-2.76-5.94-4.95-6.79-2.86-1.1-6.43-.92-8.52.74l-4.12,3.29-5.16,9.94.44,5.79-5.49,2.18c-8.49,3.37-16.92-.83-17.54-5.92-.64-5.28,5.53-11.81,9.49-10.98,3.33.71,2.31,4.68,5.76,4.71.46,0,1.45-1.46,1.35-1.91l-1.54-6.85c-2.57-1.09-5.94-1.98-8.59-1.15-7.31,2.28-13.16,10.73-11.07,18.38,1.43,5.26,7.95,7.81,12.54,8.88,6.4,1.49,11.85-.59,15.91-5.57,3.15,4.55,9.41,6.2,14.01,3.92,7.37-3.64,9.98-11.17,7.49-18.68ZM764.18,132.13c-1.32.51-3.67.71-4.74.22-1.07-.49-3.3-2.93-2.81-4.11l3.7-8.97c1.01-2.44,3.05-3.91,5.44-3.85,2.84.07,4.22,2.65,4.58,5.46.64,5.07-1.17,9.34-6.16,11.25Z"/>
    <path class="cls-1" d="M587.1,67.02c-4.31-3.02-9.76.72-11.68,4.86l-3.25-2.76c-2.03-1.72-7.74,2.35-11.77,6.93-5.44,6.22-11.46,10.82-17.3,5.7,5.5-2.44,10.31-4.65,11.85-10.39.43-1.61.04-4.48-1.06-5.59-3.74-3.8-13.27,3.53-16.39,12.59l-3.8.29c-.7.06-.37,2.85.32,2.99l2.52.54c1.11.23,2.52,1.38,3.71,2.67,4.31,4.66,12.87,4.36,17.6-.09l11.83-11.11c.59,6.29-4.13,12.28.57,12.86,1.01.12,2.69-1.1,3.14-2.05l4.02-8.32c1.24-2.58,3.42-4.54,6.28-6.06,1.43,8.28-3.69,15.45,1.01,16.52,1.04.23,3.37-.62,3.32-1.67-.35-7.52,2.32-13.37-.94-17.89ZM544.12,75.08c.9-2.05,2.62-3.53,5.16-4.45.59-.21,1.18.32,1.03.92-.5,2.03-1.95,3.68-5.28,4.61-.64.18-1.17-.48-.91-1.09Z"/>
    <path class="cls-1" d="M787.73,78.01l-.94-10.49c-.14-1.62-2.19-3.64-3.45-3.8-1.37-.18-3.88.9-4.62,1.92l-3.19,4.35c-1.24-3.28-1.61-4.51-3.39-6.15-5.16-4.76-12.91,19.74-25.08,14.44,5.91-2.33,10.36-6.54,10.66-12.67.15-3.01-4.19-4.08-6.85-3.46-7.11,1.67-11.66,13.2-7.37,18.42,4.25,5.16,13.04,4.01,18.42-2.37l8.06-9.58c1.47,4.9.46,8.24-.57,12.17.45,1.25,2.94,2.94,4.1,2.87,2.7-5.53,4.7-10,8.51-14.66,1.88,6.91.26,15.8,5.93,13.58,1.2-.47-.11-3.48-.21-4.57ZM749.56,68.75c1.39-1.18,2.82-1.78,3.2-1.34.38.44-.43,1.77-1.83,2.95-1.39,1.18-2.82,1.78-3.2,1.34-.38-.45.44-1.77,1.83-2.95Z"/>
    <path class="cls-1" d="M740.15,80.62l-2.24-.46-2.97-.61c-.66-.14-1.23-2.28-1.15-3.04.87-7.7,4.96-12.39,2.34-14.41-2.29-1.78-5.77,3.06-16.78,1.27-.76-.12-2.9.55-2.81,1.29l.38,2.85c.45,3.35-1.18,7.41-3.47,9.29-2.98,2.46-7,3.43-10.25,1.72,5.59-2.28,10.65-9.51,7.27-14.58-4.02-3.81-10.6,1.21-12.98,5.07-2.75,4.46-2.96,9.1,1.44,12.31,4.53,3.31,10.42,2.93,15.16.19,4.32-2.5,6.53-6.99,7.05-13.06l9.23-.58c-2.03,5.38-2.43,11.56,1.95,15.39,1.39,1.23,5.74.81,7.44.14.62-.24,1.05-2.65.39-2.78ZM707.37,67.7c-.97,3.12-3.35,5.53-6.59,6.85.4-3.4,2.67-6,6.59-6.85Z"/>
    <path class="cls-1" d="M549.71,132.47l.9-8.36.58-17.73c.03-.93.78-2.71,1.52-2.96.89-.29,3.17.53,3.68,1.5l5.17,9.92c.51.98,2.31,2.44,3.3,2.7s3.5-.73,4.14-1.52c5.82-7.18,6.29-13.42,9.25-13.31,1.07.04,2.77,1.75,2.8,2.83l.54,23.97c.03,1.48,2.06,3.91.16,5.2-1.25.85-5.1.77-5.12-.83l-.31-19.27c-3.36,4.47-5.18,7.17-9.48,7.66-4.04.45-7.58-2.02-11.09-5.77l-.24,15.8c-.01.77-.58,2.75-1.01,3.4s-2.31.22-3.11.02c-.9-.22-1.78-2.14-1.66-3.25Z"/>
    <path class="cls-1" d="M628.4,117.26l-12.19,1.11c.76-3.88,3.88-6.7,7.29-9.45.1-1.44-2.72-3.11-4.13-2.74-5.98,1.54-9.16,12.46-9.84,20.32-.35,4.01,2.65,7.29,5.33,8.73,3.63,1.93,6.72.73,10.51-.89-.72,1.8-1.75,3.67-1.02,4.48.78.88,3.12,1.71,4.19,1.55,1.24-.18,1.79-2.57,1.9-3.98l1.17-14.98c.11-1.38-1.86-4.26-3.2-4.13ZM625.65,126.86l-4.78,4.28c-1.28,1.13-4.66-.32-5.4-1.65-.9-1.62-1.25-5.09-.02-6.01l10-1.66c.64.84,1.07,4.26.2,5.03Z"/>
    <path class="cls-1" d="M635.22,130.59l3.51-17.95c.23-1.19,1.55-2.71,2.41-2.81,1.01-.12,3.44,1.29,3.68,2.4l2.38,10.99c.56,2.6,1.74,4.29,4.38,6.57,1.79-4.33,2.98-7.36,3.28-11.95l.68-10.16c.06-.97,2.22-1.87,3.06-1.71,1,.2,3.04,1.72,2.83,2.74l-2.7,13.37c-.71,3.53-1.43,7.39-3.4,10.28-1.78,2.62-6.09,1.81-8.12-.3-2.26-2.36-3.78-5.42-5.4-8.68l-2.38,10.58c-.19.79-2.89.73-3.35.08s-1.04-2.57-.86-3.46Z"/>
    <path class="cls-1" d="M607.97,121.35c.41-.67-2.61-1.34-3.3-1.47l-1.74-12.59c-.16-1.17-2.62-2.72-3.72-2.69-1.11.02-3.13,1.47-3.54,2.53l-3.73,9.47-6.71,17.38c1.65,1.23,4.94,2.05,5.73,1.01l2.54-7.16,6.77-1.42,1.31,8.27c.18,1.12,3.95,1.96,4.46,1.02,2.22-4.07-2.44-7.24-.04-11.14l1.96-3.19ZM595.23,122.35c.95-4.52,1.34-6.68,3.16-10.78l1.8,10.02-4.96.76Z"/>
    <path class="cls-1" d="M285.64,135.11c8.47-.78-4.75,22.81-8.96,17.16-1.76-2.36,5.83-5.96,6.29-13.58.12-1.96,1.11-3.44,2.67-3.58Z"/>
    <path class="cls-1" d="M500.31,111.06c-.46.54-2.76.43-2.8-.14s.11-2.18.48-2.68l8.84-12.07c.47-.64,2.99-.88,3.67-.65.81.27.43,2.92-.19,3.65l-10,11.9Z"/>
    <path class="cls-1" d="M489.53,60.84c-.76,1.16-1.43,2-1.88,2.32s-1.89-.73-2.27-1.17c-.45-.53-.15-1.5.4-2.47l6.91-10.94,2.19-2.31c.51-.54,3.41,1.03,3.06,1.73l-8.41,12.84Z"/>
    <path class="cls-1" d="M686.31,91.23c1.12,2.38-1.91,6.23-5.45,8.91-.71.54-3.52,0-3.88-.49l5.4-7.07,1.74-1.88c.41-.44,1.93-.02,2.19.53Z"/>
    <path class="cls-1" d="M832.15,55.95l-4.29,5.63c-.83,1.09-3.85-.74-3.77-2.16.16-2.66.92-3.61,3.76-4.08,1.02-.17,3.73.17,4.29.61Z"/>
    <path class="cls-1" d="M787.55,138.4c-.06,1.96-2.34,2.9-3.76,2.4-1.97-.69-3.03-2.92-1.62-4.78,1.29-1.7,5.49-.71,5.38,2.37Z"/>
    <path class="cls-1" d="M234.71,105.45c-.67.69-3.12.86-3.78.38s-1.81-2.06-1.63-2.84c.34-1.43,2.61-2.26,3.67-1.89,1.76.62,3.17,2.89,1.74,4.34Z"/>
    <circle class="cls-1" cx="716.94" cy="105.77" r="2.71"/>
  </g>
  <path class="cls-1" d="M383.4,75.56c-1.19.5-2.31.9-3.35,1.19.91-3.14.57-5.91-1.19-7.32-2.71-2.16-7.86-.31-11.96,4.13-.02.02-.05.05-.07.08h0c-.34.37-.67.75-.98,1.14-1.36,1.71-2.4,3.51-3.06,5.24-.46,1.18-1.13,2.27-2.08,3.1-.84.74-2.58,1.33-2.59,1.33-.19.03-.69.12-.88.12-.85.06-1.4-.14-1.98-.73-.38-.39-.64-.9-.68-1.5-.3-4.08.68-7.97,2.72-11.56l5.84-10.25c.51-.9-.35-3.39-1.24-3.62-.88-.23-3,.54-3.54,1.61l-6.96,13.81-2.35-3.05c-3.85-1.58-7.05.47-10.43,1.92-2.46,1.05-4.51,1.58-5.83,3.96-2.12,3.8-4.75,6.75-8.36,8.85l1.01-9.89c.13-1.2-1.17-3.53-2.24-3.91-1.08-.37-3.63.45-4.42,1.36l-4.88,5.67c-.79-2.76-1.4-4.81-2.63-5.32-1.31-.55-3.68.33-4.46,1.22l-7.29,8.34c-1.76,2.02-4.53,3.76-7.04,4.82l1.89-8.06c.46-1.99,0-4.53-1.17-5.99-.97-1.21-3.88-2.49-5.46-1.98l-10.95,2.89c-1.66,3.36-3.16,7.46-4.98,10.46-1.73,2.85-3.73,4.7-6.42,3.98-3.47-5.24,3-10.29,1.09-14.02-.36-.71-2.16-.93-2.85-.55-3.26,1.85-2.4,9.13-10.8,14.02-.88.51-2.86.99-3.74.68-.73-.26-1.6-2.25-1.47-3.02,1.38-8.07,5.86-11.48,2.34-13.41-.98-.53-3.51.38-3.92,1.63-4.71,14.36-21.59,16.66-23.11,11.66-1.44-4.71,4.05-14.93,12.32-15.15l1.29,3.81c.22.64,2.67.39,2.65-.31l-.1-2.86c-.11-3.16-2.45-5.24-5.34-4.76-9.12,1.54-15.44,9.36-15.37,18.62.03,3.51,2.82,6.18,6.05,6.8,6.98,1.34,12.99-1.29,18.91-5.71-.18,4.11,1.46,6.63,4.93,7.14,4.37.64,7.85-1.35,11.23-4.68,1.72,3.53,4.2,5.17,7.68,4.84,2.45-.23,4.96-1.83,7.22-4.58,3.15,5.42,8.55,3.53,13.64,2.33,3.14-.74,7.32,1.87,10.71-1.7l9.12-9.57c.41,5.83-3.92,11.9.31,11.69.79-.04,2.59-.81,3.03-1.5l8.52-13.08c1.38,4.28-1.73,9.16.56,12.33,2.69,3.72,7.55-.74,9.47-2.55,2.94,2.66,6.6,5.3,10.41,5.03,3.67-.27,7.03-2.85,9.58-6.53,1.64,3.62,4.67,5.57,8.39,4.33v-.05c.17,0,.34-.03.51-.06,1.28-.18,2.5-.66,3.65-1.46.27.68.68,1.25,1.23,1.68,2.95,2.35,8.77-.05,13.01-5.36.54-.68,1.03-1.38,1.46-2.07,2.09-.33,4.4-1.21,6.61-2.79l-1.21-2.89ZM286.62,84.02c-.62,2.16-4.23,4.1-6.52,2.58-.8-1.54-.93-5.96.19-7.47,1.94-2.62,5.9-3.9,8.93-4.23l-2.59,9.12ZM340.5,83.97l-2.7.97c-.62.23-1.33-1.83-1.19-2.65.72-4.5,4.95-9.15,9.97-8.81,1.8,3.97-1.59,8.89-6.08,10.5ZM374.36,81.57c-2.51,3.14-5.96,4.57-7.7,3.17-.43-.34-.71-.81-.86-1.38-.18-.67-.17-1.47.02-2.34.27-1.32.95-2.79,1.99-4.17.57,1.12,1.49,2.31,2.94,3.21,1.11.68,2.38,1.11,3.81,1.27-.06.08-.13.17-.19.25ZM376.51,77.37c-1.47.08-2.69-.16-3.62-.72-1.27-.77-1.76-2.02-1.95-2.76,1.83-1.16,3.67-1.43,4.79-.53.98.79,1.21,2.29.78,4.01Z"/>
  <path class="cls-1" d="M689.74,78.22l-.16-10.15c-.88-2.7-5.46-1.79-7.06-.33l-12.16,11.08.02-7.66c9.09-3.72,14.09-10.87,16.22-20.18.68-2.95,1.82-8.01-.05-10.33-2.27-2.85-7.14-1.1-9.36,1.1-6.96,6.87-9.38,16.37-10.69,25.99l-4.27.31c-.23.02-.43.16-.6.41v2.88h-1.28s-.02.04-.02.06l-.02-.06h-1.11v-.23c0-2.69-1.68-5.16-4.25-5.93-.02,0-.04,0-.06-.02-1.09-.31-2.24-.5-3.39-.56-4.29-.26-8.15,2.33-10.05,6.18-4.77,9.64-18.13,15.49-22.07,12.22-3.01-2.5-1.54-6.39-.16-9.3,1.56-3.29,4.91-8.02,9.31-6.07,3.77,1.66-3.27,11.29.49,11.61,4.32.35,6.52-8.61,3.52-13.99-1.27-2.28-6.03-3.14-8.48-2.49-8.5,2.25-13.82,17.23-8.66,22.78,5.23,5.61,17.34,2.07,24.61-5.98,1.02,3.08,1.84,5.06,3.43,6.26,1.6,1.23,4.72,1.74,6.7,1.19,5.11-1.39,7.74-5.56,8.69-10.65l6.71-3.9,1.59,11c.3,2.02,4.71,1.25,5.91-.05l10.9-11.77c.49,3.86.76,6.89,1.99,9.66.63,1.41,4.32,2.53,5.63,1.97,1.22-.52,2.49-2.2,3.28-3.83l-5.1-1.2ZM684.39,43.61c.06,8.28-5.53,18.93-13.24,22.14.72-8.7,5.29-20.45,13.24-22.14ZM646.45,81.96c-1.86-.82-2.12-5.98-.92-7.52l8.8,2.07c0,2.69-3.86,7.24-7.88,5.44ZM655.94,72.07c-3.56.86-5.96,0-7.2-2.6,1.17-2.86,8.09.23,7.2,2.6Z"/>
  <path class="cls-1" d="M366.9,73.57s-.05.05-.07.08c0-.04,0-.06,0-.07h.08Z"/>
</svg>